HIERARCHY
ROOT Hips
{
  OFFSET -79.7045 102.342 5.7837
  CHANNELS 6 Xposition Yposition Zposition Zrotation Xrotation Yrotation
  JOINT RightUpLeg
  {
    OFFSET -8.9458 -8.66707 0.101652
    CHANNELS 3 Zrotation Xrotation Yrotation
    JOINT RightLeg
    {
      OFFSET 0 -44.4227 1.3727
      CHANNELS 3 Zrotation Xrotation Yrotation
      JOINT RightFoot
      {
        OFFSET 0.253549 -42.0924 -1.46059
        CHANNELS 3 Zrotation Xrotation Yrotation
        JOINT RightToes
        {
          OFFSET 0.04 -4.41509 8.4991
          CHANNELS 3 Zrotation Xrotation Yrotation
          End Site
          {
            OFFSET -0.08 -0.137448 9.77979
          }
        }
      }
    }
  }
  JOINT Spine
  {
    OFFSET 0 11.8905 0
    CHANNELS 3 Zrotation Xrotation Yrotation
    JOINT Spine1
    {
      OFFSET 0 25.6574 0.127663
      CHANNELS 3 Zrotation Xrotation Yrotation
      JOINT HEad
      {
        OFFSET 0 8.73416 0.011341
        CHANNELS 3 Zrotation Xrotation Yrotation
        End Site
        {
          OFFSET -0.29 12.7742 2.51395
        }
      }
      JOINT LeftShoulder1
      {
        OFFSET 8.99 -0.362252 -0.22
        CHANNELS 3 Zrotation Xrotation Yrotation
        JOINT LeftArm
        {
          OFFSET 10.2827 -0.00337999 0.322123
          CHANNELS 3 Zrotation Xrotation Yrotation
          JOINT LeftForeArm
          {
            OFFSET 26.2597 0.099144 -1.42434
            CHANNELS 3 Zrotation Xrotation Yrotation
            JOINT LeftHand
            {
              OFFSET 22.0902 0.085362 1.02216
              CHANNELS 3 Zrotation Xrotation Yrotation
              End Site
              {
                OFFSET 13.419 -0.6 1.50291
              }
            }
          }
        }
      }
      JOINT RightShoulder
      {
        OFFSET -8.99 -0.362252 -0.22
        CHANNELS 3 Zrotation Xrotation Yrotation
        JOINT RightArm
        {
          OFFSET -10.2827 -0.00338 0.322123
          CHANNELS 3 Zrotation Xrotation Yrotation
          JOINT RightForeArm
          {
            OFFSET -26.364 0.099144 -1.42434
            CHANNELS 3 Zrotation Xrotation Yrotation
            JOINT RightHand
            {
              OFFSET -22.0324 0.085362 1.02216
              CHANNELS 3 Zrotation Xrotation Yrotation
              End Site
              {
                OFFSET -13.3284 -0.6 1.50291
              }
            }
          }
        }
      }
    }
  }
  JOINT LeftUpLeg
  {
    OFFSET 8.9458 -8.66707 0.101652
    CHANNELS 3 Zrotation Xrotation Yrotation
    JOINT LeftLeg
    {
      OFFSET 0 -44.4227 1.3727
      CHANNELS 3 Zrotation Xrotation Yrotation
      JOINT LeftFoot
      {
        OFFSET -0.253549 -42.0924 -1.46059
        CHANNELS 3 Zrotation Xrotation Yrotation
        JOINT LeftToes
        {
          OFFSET -0.04 -4.41509 8.4991
          CHANNELS 3 Zrotation Xrotation Yrotation
          End Site
          {
            OFFSET 0.08 -0.047448 9.77979
          }
        }
      }
    }
  }
}
MOTION
Frames:	19
Frame Time:	0.0333333
-208.852 104.711 79.2728 0.499909 2.11909 88.9749 -0.285035 0.254898 -2.25457 -0.530378 9.96948 -12.1062 -2.0167 -4.92932 -0.104925 0.0462048 0.000530889 0.662642 -4.13836 -2.65434 -1.17116 2.09754 9.83493 -1.49034 -1.55997 12.9866 3.79105 -33.8556 -4.65219 15.1262 -81.7814 -42.6629 -40.5412 -173.966 57.2321 177.937 9.95725 8.84037 -8.01206 31.2089 -1.41274 -7.8569 51.2456 -17.6439 19.8571 10.3095 64.7138 5.20579 -1.02993 9.88242 -0.0590608 -0.897889 -1.96544 1.0541 1.36456 7.85127 10.5072 2.08817 -2.91333 -0.0848206 -1.32579e-009 8.75267e-006 -1.47857e-008 
-208.738 104.711 79.2014 0.561375 2.13347 88.9468 -0.37585 0.412801 -2.35399 -0.512691 9.9443 -11.9793 -1.93154 -4.97777 -0.104932 0.0462048 0.000530889 0.662642 -4.26584 -2.62048 -1.25206 2.17766 9.70183 -1.58501 -1.59867 13.1513 3.70946 -33.933 -4.71999 15.2713 -81.6072 -42.833 -40.4388 -173.976 57.0363 178.009 10.7271 8.76557 -7.83162 30.398 -0.847808 -6.42887 51.6824 -18.3905 18.5507 9.10622 64.2375 6.29716 -1.00285 9.88497 0.31153 -0.982847 -1.77089 0.988347 1.40741 7.75261 10.6018 1.9541 -2.93878 -0.0787065 -1.32579e-009 8.75267e-006 -1.47857e-008 
-208.615 104.711 79.1389 0.503959 2.08457 88.9211 -0.366808 0.510731 -2.34825 -0.496058 9.77162 -11.9726 -2.03327 -4.97063 -0.104931 0.0462048 0.000530889 0.662642 -4.20853 -2.80225 -1.14914 2.02393 9.68615 -1.43729 -1.36939 12.9114 3.42852 -33.6555 -4.48351 14.7651 -81.5066 -43.1423 -39.9742 -173.941 57.1488 178.037 10.7744 8.76624 -7.76232 30.8175 -1.08082 -7.02317 51.811 -19.3102 18.9102 9.93937 65.6478 5.18074 -1.11503 9.87795 0.489234 -1.00025 -1.79319 0.95392 1.45877 7.84123 10.6653 1.9424 -3.05436 -0.075034 -1.32579e-009 8.75267e-006 -1.47857e-008 
-208.501 104.709 79.0709 0.49837 1.99595 89.0054 -0.282432 0.644776 -2.30237 -0.524927 9.65568 -12.0911 -2.02566 -4.95043 -0.106245 0.0462048 0.000530889 0.662642 -4.17983 -2.96429 -1.25241 1.9872 9.89916 -1.53487 -1.52174 12.6361 3.46022 -33.5787 -4.47765 14.7717 -81.7529 -43.2883 -40.1605 -173.863 57.2377 178.184 10.4184 8.78932 -7.97404 31.0184 -1.16134 -7.22002 51.3855 -18.3343 18.8821 9.45088 64.8721 5.95145 -1.38684 9.86216 0.966647 -0.946271 -1.75302 0.985904 1.46831 7.88891 10.5361 1.93948 -3.14786 -0.0723068 -1.32579e-009 8.75267e-006 -1.47857e-008 
-208.323 104.7 78.9747 0.571232 1.92775 89.0996 -0.235128 0.860875 -2.29081 -0.594457 9.62649 -12.1215 -1.77469 -4.99798 -0.112663 0.0462048 0.000530889 0.662642 -4.13836 -3.0063 -1.2747 1.99775 9.96049 -1.56845 -1.97985 12.641 3.4894 -33.4747 -4.442 14.7121 -81.8679 -43.463 -40.0865 -173.857 56.8365 178.38 10.1589 8.8172 -8.00265 31.2125 -1.2811 -7.52265 50.9512 -17.3921 18.989 9.27214 63.7531 6.40541 -0.802139 9.89362 -0.314917 -0.945991 -1.65438 1.00362 1.48812 8.07398 10.4321 1.98659 -3.33766 -0.0700619 -1.32579e-009 8.75267e-006 -1.47857e-008 
-208.146 104.689 78.87 0.706531 2.02481 88.9732 -0.449671 1.01042 -2.48464 -0.559294 9.82437 -11.8641 -1.69424 -5.17991 -0.11858 0.0462048 0.000530889 0.662642 -4.34642 -2.94082 -1.22025 2.24498 9.78475 -1.56818 -2.43994 12.5243 3.5501 -33.5616 -4.43547 14.6711 -81.7929 -43.8604 -39.8681 -173.823 56.5156 178.59 10.4632 8.78531 -7.97482 31.0637 -1.21645 -7.36472 51.3988 -19.016 18.9026 10.2076 65.5168 5.00896 -1.21251 9.87426 0.265645 -1.16054 -1.35848 0.893444 1.52996 8.02971 10.6699 2.13649 -3.42843 -0.0680837 -1.32579e-009 8.75267e-006 -1.47857e-008 
-208.033 104.695 78.7931 0.7295 1.99002 88.8601 -0.476104 1.23273 -2.5212 -0.53104 9.53743 -11.7226 -1.74975 -5.06941 -0.113959 0.0462048 0.000530889 0.662642 -4.29475 -3.07968 -1.14985 2.34239 9.88997 -1.51428 -3.20696 12.2985 3.38873 -33.591 -4.40583 14.5886 -81.8168 -43.9799 -39.7994 -173.772 56.7014 178.631 10.8834 8.78733 -7.3702 31.0244 -1.27516 -7.52631 51.752 -19.7285 19.0626 10.6528 66.0895 4.32455 -1.24178 9.87169 0.604869 -1.18522 -1.27902 0.860193 1.55126 8.08799 10.8202 2.06748 -3.5137 -0.0661764 -1.32579e-009 8.75267e-006 -1.47857e-008 
-207.921 104.689 78.7191 0.702667 1.94228 88.6698 -0.412633 1.2259 -2.40557 -0.662984 9.58526 -11.6732 -1.72224 -5.11483 -0.112296 0.0462048 0.000530889 0.662642 -3.9903 -3.5505 -1.19551 1.95061 10.3744 -1.46837 -3.78487 12.1822 3.41876 -33.5686 -4.45056 14.7056 -81.8651 -44.0442 -39.9718 -173.741 56.7686 178.675 10.1848 8.84338 -7.64185 31.2222 -1.26685 -7.48239 52.1873 -20.0318 19.4235 10.6184 66.0792 4.24078 -0.956101 9.88673 -0.0223207 -1.19448 -1.2762 0.865722 1.56417 8.21679 11.0202 2.00896 -3.66346 -0.0641324 -1.32579e-009 8.75267e-006 -1.47857e-008 
-207.785 104.675 78.6432 0.740327 1.83279 88.6156 -0.309231 1.38278 -2.29904 -0.727306 9.5116 -11.6968 -1.7285 -5.11748 -0.111206 0.0462048 0.000530889 0.662642 -3.80243 -3.87374 -1.30719 1.85421 10.6742 -1.56895 -4.06248 11.933 3.55989 -33.7226 -4.58819 15.006 -81.9247 -44.0705 -40.1958 -173.715 56.7735 178.735 9.72064 8.89426 -7.66573 31.1913 -1.18484 -7.26298 51.8438 -19.3913 19.0027 9.80229 65.6511 5.29084 -1.16637 9.8754 1.10665 -1.14417 -1.27849 0.909813 1.59111 8.4989 11.0279 2.15163 -3.89234 -0.0625357 -1.32579e-009 8.75267e-006 -1.47857e-008 
-207.63 104.677 78.5568 0.959518 1.91769 88.6765 -0.505039 1.76503 -2.54901 -0.671244 9.43709 -11.4991 -1.6703 -5.17375 -0.110631 0.0462048 0.000530889 0.662642 -4.12769 -3.05643 -1.28866 2.00469 9.71454 -1.57941 -4.26127 12.1825 3.4469 -33.523 -4.52043 14.893 -81.6893 -44.3493 -39.8463 -173.696 56.8498 178.747 10.7404 8.79473 -7.47493 31.5956 -1.39387 -7.77938 50.8962 -18.0719 18.6197 9.77397 64.4227 5.72015 -1.01362 9.88317 0.9132 -1.3412 -0.807887 0.778802 1.66384 8.21664 11.0903 2.13607 -3.86853 -0.0615207 -1.32579e-009 8.75267e-006 -1.47857e-008 
-207.569 104.67 78.5096 0.918978 1.91007 88.6343 -0.505411 1.71119 -2.55303 -0.714554 9.51123 -11.424 -1.79107 -5.2049 -0.110481 0.0462048 0.000530889 0.662642 -4.54695 -2.69231 -1.43384 2.6031 8.92278 -1.86434 -4.98671 12.8796 4.19026 -33.9544 -4.77303 15.3983 -81.313 -44.609 -39.7811 -173.721 56.4354 178.849 11.1315 8.75946 -7.37913 31.0541 -1.0967 -7.04425 50.9138 -17.31 17.8769 8.89977 63.2204 6.83458 -0.621096 9.90229 -0.0276331 -1.36207 -0.87404 0.763806 1.66382 8.34482 11.153 2.08231 -3.94825 -0.0606776 -1.32579e-009 8.75267e-006 -1.47857e-008 
-207.503 104.656 78.4451 0.913161 1.90536 88.5836 -0.526571 1.67408 -2.57527 -0.758754 9.64698 -11.3557 -1.79749 -5.2895 -0.110695 0.0462048 0.000530889 0.662642 -4.37708 -3.13828 -1.41855 2.42834 9.34406 -1.80192 -5.12204 12.678 4.11656 -33.9787 -4.71937 15.2575 -81.323 -44.6001 -39.6873 -173.719 56.635 178.779 10.4674 8.81187 -7.63287 31.0886 -1.07793 -6.98939 51.5821 -19.0082 18.2671 10.0067 65.0208 5.22212 -0.878344 9.89035 0.0792428 -1.39334 -0.935208 0.764767 1.64267 8.55535 11.2262 2.15615 -4.10239 -0.0599875 -1.32579e-009 8.75267e-006 -1.47857e-008 
-207.405 104.647 78.3806 0.952502 1.90607 88.4995 -0.579407 1.76211 -2.6188 -0.76087 9.6517 -11.1998 -1.86077 -5.31757 -0.111178 0.0462048 0.000530889 0.662642 -4.29628 -3.37447 -1.3452 2.35139 9.4905 -1.7068 -5.12029 12.4427 3.86199 -34.0466 -4.69627 15.1802 -81.353 -44.597 -39.736 -173.709 56.6694 178.788 10.6044 8.79468 -7.65411 31.0606 -1.1235 -7.11447 51.8051 -19.4931 18.3026 10.302 65.7951 4.76707 -1.12609 9.87839 0.192834 -1.44199 -0.812905 0.765179 1.63708 8.54065 11.306 2.19383 -4.16299 -0.0594209 -1.32579e-009 8.75267e-006 -1.47857e-008 
-207.339 104.647 78.3277 0.932329 1.89307 88.426 -0.633785 1.79176 -2.66979 -0.711573 9.62103 -11.0722 -1.84676 -5.33225 -0.111861 0.0462048 0.000530889 0.662642 -4.42239 -3.40039 -1.36585 2.51321 9.44396 -1.76312 -4.91252 12.4686 4.12416 -34.1513 -4.79973 15.4048 -81.1831 -44.4253 -39.6689 -173.752 56.8943 178.599 10.4609 8.81589 -7.59544 30.9636 -1.06687 -6.97164 51.5268 -18.5957 18.0752 9.70542 65.2073 5.61974 -1.25435 9.87222 0.451902 -1.42531 -0.77774 0.85381 1.55178 8.52274 11.3362 2.34138 -4.21127 -0.0589669 -1.32579e-009 8.75267e-006 -1.47857e-008 
-207.268 104.639 78.2548 1.01765 1.98402 88.3385 -0.813803 1.85603 -2.83265 -0.694807 9.75423 -10.8181 -1.8694 -5.44384 -0.112691 0.0462048 0.000530889 0.662642 -4.79331 -3.29281 -1.18187 3.04539 9.3874 -1.69101 -5.0979 12.6141 3.91923 -34.3383 -4.81053 15.376 -81.2537 -44.2462 -39.6208 -173.79 56.8367 178.534 10.1391 8.84896 -7.63688 30.772 -1.13501 -7.17386 50.9622 -17.0644 17.8654 8.67004 63.5991 7.1159 -1.18826 9.877 0.287905 -1.54285 -0.575134 0.854521 1.47249 8.39422 11.4423 2.45678 -4.22079 -0.0586067 -1.32579e-009 8.75267e-006 -1.47857e-008 
-207.217 104.636 78.1991 1.01642 2.00114 88.4399 -0.851122 1.89169 -2.85012 -0.722206 9.77389 -10.8797 -1.76433 -5.47825 -0.113558 0.0462048 0.000530889 0.662642 -4.76835 -3.46911 -1.199 2.90846 9.5441 -1.66969 -5.1492 13.0094 3.92819 -34.1647 -4.70382 15.163 -81.3363 -44.1795 -39.5086 -173.788 57.0187 178.461 8.94092 8.98528 -7.6287 30.9449 -1.0708 -6.98193 51.1788 -18.2781 17.9062 8.91801 64.3329 6.56117 -1.10072 9.87928 0.516735 -1.59221 -0.527902 0.822888 1.47182 8.3508 11.3504 2.44316 -4.25563 -0.0583282 -1.32579e-009 8.75267e-006 -1.47857e-008 
-207.2 104.621 78.1536 0.980417 1.9069 88.5207 -0.694418 1.85053 -2.65326 -0.849223 9.81987 -11.1407 -1.5842 -5.49722 -0.1144 0.0462048 0.000530889 0.662642 -4.43454 -3.4182 -1.1326 2.4222 9.43542 -1.49488 -4.66538 13.3739 3.90816 -33.7496 -4.47472 14.7166 -81.4857 -44.1763 -39.2223 -173.781 57.1119 178.439 8.5645 9.03352 -7.5399 31.4966 -1.32058 -7.5977 51.2994 -19.163 18.4901 9.87478 65.1613 5.32933 -1.07348 9.88058 0.974401 -1.55152 -0.732667 0.791988 1.54434 8.69874 11.3252 2.40432 -4.41553 -0.058122 -1.32579e-009 8.75267e-006 -1.47857e-008 
-207.209 104.612 78.1248 0.891294 1.79372 88.5065 -0.532128 1.72922 -2.47123 -0.919622 9.85873 -11.3187 -1.71655 -5.49138 -0.115138 0.0462048 0.000530889 0.662642 -4.21316 -3.8392 -1.27222 2.08322 9.96936 -1.56142 -4.39405 13.2291 3.81114 -33.6246 -4.49327 14.7976 -81.5791 -43.8118 -39.5132 -173.802 57.3011 178.301 9.52121 8.94791 -7.26916 31.607 -1.3614 -7.69294 51.7999 -19.5931 19.1395 10.4809 65.585 4.52909 -0.974567 9.88595 1.18176 -1.46554 -0.944163 0.822227 1.57961 8.93059 11.3273 2.53297 -4.50816 -0.0579567 -1.32579e-009 8.75267e-006 -1.47857e-008 
-207.178 104.607 78.0813 0.997472 1.68095 88.3491 -0.409095 1.87849 -2.34958 -1.00468 9.80349 -11.2703 -1.61707 -5.4691 -0.115699 0.0462048 0.000530889 0.662642 -3.98476 -4.02885 -1.37965 1.87094 10.3238 -1.63293 -4.30316 13.3287 4.04602 -33.708 -4.56278 14.9474 -81.9071 -43.8358 -39.9568 -173.715 57.3987 178.469 11.4673 8.74413 -7.13475 31.4293 -1.18841 -7.25263 52.1161 -19.7253 19.1942 10.4371 65.8359 4.51005 -1.04723 9.88175 1.34762 -1.40832 -0.801746 0.874474 1.61538 8.94344 11.4491 2.7156 -4.59428 -0.0578199 -1.32579e-009 8.75267e-006 -1.47857e-008 
